<mxfile host="app.diagrams.net" agent="Mozilla/5.0 (Windows NT 10.0; Win64; x64) AppleWebKit/537.36 (KHTML, like Gecko) Chrome/131.0.0.0 Safari/537.36" version="26.0.5">
  <diagram name="Sayfa -1" id="rt4rzsd_kUnmTgCIrP4J">
    <mxGraphModel dx="2261" dy="780" grid="1" gridSize="10" guides="1" tooltips="1" connect="1" arrows="1" fold="1" page="1" pageScale="1" pageWidth="827" pageHeight="1169" math="0" shadow="0">
      <root>
        <mxCell id="0" />
        <mxCell id="1" parent="0" />
        <mxCell id="Jg-Q7u7jgiy3Y-VFD5Qe-30" style="edgeStyle=orthogonalEdgeStyle;rounded=0;orthogonalLoop=1;jettySize=auto;html=1;entryX=0.5;entryY=0;entryDx=0;entryDy=0;" edge="1" parent="1" source="Jg-Q7u7jgiy3Y-VFD5Qe-1" target="Jg-Q7u7jgiy3Y-VFD5Qe-29">
          <mxGeometry relative="1" as="geometry" />
        </mxCell>
        <mxCell id="Jg-Q7u7jgiy3Y-VFD5Qe-31" style="edgeStyle=orthogonalEdgeStyle;rounded=0;orthogonalLoop=1;jettySize=auto;html=1;entryX=0.5;entryY=0;entryDx=0;entryDy=0;" edge="1" parent="1" target="Jg-Q7u7jgiy3Y-VFD5Qe-4">
          <mxGeometry relative="1" as="geometry">
            <mxPoint x="720" y="80" as="sourcePoint" />
            <Array as="points">
              <mxPoint x="760" y="80" />
            </Array>
          </mxGeometry>
        </mxCell>
        <mxCell id="Jg-Q7u7jgiy3Y-VFD5Qe-32" style="edgeStyle=orthogonalEdgeStyle;rounded=0;orthogonalLoop=1;jettySize=auto;html=1;entryX=0.5;entryY=0;entryDx=0;entryDy=0;" edge="1" parent="1" source="Jg-Q7u7jgiy3Y-VFD5Qe-1" target="Jg-Q7u7jgiy3Y-VFD5Qe-2">
          <mxGeometry relative="1" as="geometry" />
        </mxCell>
        <mxCell id="Jg-Q7u7jgiy3Y-VFD5Qe-1" value="200,400" style="whiteSpace=wrap;html=1;aspect=fixed;fillColor=#f5f5f5;fontColor=#333333;strokeColor=#666666;" vertex="1" parent="1">
          <mxGeometry x="560" y="40" width="80" height="80" as="geometry" />
        </mxCell>
        <mxCell id="Jg-Q7u7jgiy3Y-VFD5Qe-10" style="edgeStyle=orthogonalEdgeStyle;rounded=0;orthogonalLoop=1;jettySize=auto;html=1;" edge="1" parent="1" source="Jg-Q7u7jgiy3Y-VFD5Qe-2" target="Jg-Q7u7jgiy3Y-VFD5Qe-5">
          <mxGeometry relative="1" as="geometry" />
        </mxCell>
        <mxCell id="Jg-Q7u7jgiy3Y-VFD5Qe-47" style="edgeStyle=orthogonalEdgeStyle;rounded=0;orthogonalLoop=1;jettySize=auto;html=1;entryX=1;entryY=0.5;entryDx=0;entryDy=0;" edge="1" parent="1" source="Jg-Q7u7jgiy3Y-VFD5Qe-2" target="Jg-Q7u7jgiy3Y-VFD5Qe-46">
          <mxGeometry relative="1" as="geometry" />
        </mxCell>
        <mxCell id="Jg-Q7u7jgiy3Y-VFD5Qe-2" value="201,400" style="whiteSpace=wrap;html=1;aspect=fixed;fillColor=#f5f5f5;fontColor=#333333;strokeColor=#666666;" vertex="1" parent="1">
          <mxGeometry x="560" y="160" width="80" height="80" as="geometry" />
        </mxCell>
        <mxCell id="Jg-Q7u7jgiy3Y-VFD5Qe-62" value="" style="edgeStyle=orthogonalEdgeStyle;rounded=0;orthogonalLoop=1;jettySize=auto;html=1;" edge="1" parent="1" source="Jg-Q7u7jgiy3Y-VFD5Qe-4" target="Jg-Q7u7jgiy3Y-VFD5Qe-6">
          <mxGeometry relative="1" as="geometry" />
        </mxCell>
        <mxCell id="Jg-Q7u7jgiy3Y-VFD5Qe-4" value="200,401" style="whiteSpace=wrap;html=1;aspect=fixed;fillColor=#dae8fc;strokeColor=#6c8ebf;" vertex="1" parent="1">
          <mxGeometry x="720" y="40" width="80" height="80" as="geometry" />
        </mxCell>
        <mxCell id="Jg-Q7u7jgiy3Y-VFD5Qe-64" value="" style="edgeStyle=orthogonalEdgeStyle;rounded=0;orthogonalLoop=1;jettySize=auto;html=1;" edge="1" parent="1" source="Jg-Q7u7jgiy3Y-VFD5Qe-5" target="Jg-Q7u7jgiy3Y-VFD5Qe-8">
          <mxGeometry relative="1" as="geometry" />
        </mxCell>
        <mxCell id="Jg-Q7u7jgiy3Y-VFD5Qe-5" value="202,400" style="whiteSpace=wrap;html=1;aspect=fixed;fillColor=#f5f5f5;fontColor=#333333;strokeColor=#666666;" vertex="1" parent="1">
          <mxGeometry x="560" y="280" width="80" height="80" as="geometry" />
        </mxCell>
        <mxCell id="Jg-Q7u7jgiy3Y-VFD5Qe-63" value="" style="edgeStyle=orthogonalEdgeStyle;rounded=0;orthogonalLoop=1;jettySize=auto;html=1;" edge="1" parent="1" source="Jg-Q7u7jgiy3Y-VFD5Qe-6" target="Jg-Q7u7jgiy3Y-VFD5Qe-8">
          <mxGeometry relative="1" as="geometry" />
        </mxCell>
        <mxCell id="Jg-Q7u7jgiy3Y-VFD5Qe-6" value="201,401" style="whiteSpace=wrap;html=1;aspect=fixed;fillColor=#dae8fc;strokeColor=#6c8ebf;" vertex="1" parent="1">
          <mxGeometry x="720" y="160" width="80" height="80" as="geometry" />
        </mxCell>
        <mxCell id="Jg-Q7u7jgiy3Y-VFD5Qe-65" style="edgeStyle=orthogonalEdgeStyle;rounded=0;orthogonalLoop=1;jettySize=auto;html=1;entryX=0.5;entryY=0;entryDx=0;entryDy=0;" edge="1" parent="1" source="Jg-Q7u7jgiy3Y-VFD5Qe-8" target="Jg-Q7u7jgiy3Y-VFD5Qe-14">
          <mxGeometry relative="1" as="geometry" />
        </mxCell>
        <mxCell id="Jg-Q7u7jgiy3Y-VFD5Qe-66" style="edgeStyle=orthogonalEdgeStyle;rounded=0;orthogonalLoop=1;jettySize=auto;html=1;entryX=1;entryY=0.5;entryDx=0;entryDy=0;" edge="1" parent="1" source="Jg-Q7u7jgiy3Y-VFD5Qe-8" target="Jg-Q7u7jgiy3Y-VFD5Qe-13">
          <mxGeometry relative="1" as="geometry">
            <Array as="points">
              <mxPoint x="760" y="440" />
              <mxPoint x="640" y="440" />
              <mxPoint x="640" y="560" />
            </Array>
          </mxGeometry>
        </mxCell>
        <mxCell id="Jg-Q7u7jgiy3Y-VFD5Qe-8" value="202,401" style="whiteSpace=wrap;html=1;aspect=fixed;fillColor=#dae8fc;strokeColor=#6c8ebf;" vertex="1" parent="1">
          <mxGeometry x="720" y="280" width="80" height="80" as="geometry" />
        </mxCell>
        <mxCell id="Jg-Q7u7jgiy3Y-VFD5Qe-13" value="204,400" style="whiteSpace=wrap;html=1;aspect=fixed;fillColor=#d5e8d4;strokeColor=#82b366;" vertex="1" parent="1">
          <mxGeometry x="360" y="520" width="80" height="80" as="geometry" />
        </mxCell>
        <mxCell id="Jg-Q7u7jgiy3Y-VFD5Qe-45" value="" style="edgeStyle=orthogonalEdgeStyle;rounded=0;orthogonalLoop=1;jettySize=auto;html=1;" edge="1" parent="1" source="Jg-Q7u7jgiy3Y-VFD5Qe-14" target="Jg-Q7u7jgiy3Y-VFD5Qe-41">
          <mxGeometry relative="1" as="geometry" />
        </mxCell>
        <mxCell id="Jg-Q7u7jgiy3Y-VFD5Qe-14" value="203,401" style="whiteSpace=wrap;html=1;aspect=fixed;fillColor=#e1d5e7;strokeColor=#9673a6;" vertex="1" parent="1">
          <mxGeometry x="720" y="520" width="80" height="80" as="geometry" />
        </mxCell>
        <mxCell id="Jg-Q7u7jgiy3Y-VFD5Qe-18" style="edgeStyle=orthogonalEdgeStyle;rounded=0;orthogonalLoop=1;jettySize=auto;html=1;entryX=0;entryY=0.5;entryDx=0;entryDy=0;" edge="1" parent="1" source="Jg-Q7u7jgiy3Y-VFD5Qe-2" target="Jg-Q7u7jgiy3Y-VFD5Qe-6">
          <mxGeometry relative="1" as="geometry">
            <Array as="points">
              <mxPoint x="700" y="200" />
              <mxPoint x="700" y="200" />
            </Array>
          </mxGeometry>
        </mxCell>
        <mxCell id="Jg-Q7u7jgiy3Y-VFD5Qe-34" style="edgeStyle=orthogonalEdgeStyle;rounded=0;orthogonalLoop=1;jettySize=auto;html=1;" edge="1" parent="1" source="Jg-Q7u7jgiy3Y-VFD5Qe-29" target="Jg-Q7u7jgiy3Y-VFD5Qe-33">
          <mxGeometry relative="1" as="geometry" />
        </mxCell>
        <mxCell id="Jg-Q7u7jgiy3Y-VFD5Qe-29" value="200,402" style="whiteSpace=wrap;html=1;aspect=fixed;fillColor=#ffe6cc;strokeColor=#d79b00;" vertex="1" parent="1">
          <mxGeometry x="-80" y="160" width="80" height="80" as="geometry" />
        </mxCell>
        <mxCell id="Jg-Q7u7jgiy3Y-VFD5Qe-36" style="edgeStyle=orthogonalEdgeStyle;rounded=0;orthogonalLoop=1;jettySize=auto;html=1;exitX=0.5;exitY=1;exitDx=0;exitDy=0;" edge="1" parent="1" source="Jg-Q7u7jgiy3Y-VFD5Qe-33" target="Jg-Q7u7jgiy3Y-VFD5Qe-35">
          <mxGeometry relative="1" as="geometry" />
        </mxCell>
        <mxCell id="Jg-Q7u7jgiy3Y-VFD5Qe-33" value="208,404" style="whiteSpace=wrap;html=1;aspect=fixed;fillColor=#f8cecc;strokeColor=#b85450;" vertex="1" parent="1">
          <mxGeometry x="-80" y="280" width="80" height="80" as="geometry" />
        </mxCell>
        <mxCell id="Jg-Q7u7jgiy3Y-VFD5Qe-38" style="edgeStyle=orthogonalEdgeStyle;rounded=0;orthogonalLoop=1;jettySize=auto;html=1;exitX=0.5;exitY=1;exitDx=0;exitDy=0;" edge="1" parent="1" source="Jg-Q7u7jgiy3Y-VFD5Qe-35" target="Jg-Q7u7jgiy3Y-VFD5Qe-37">
          <mxGeometry relative="1" as="geometry" />
        </mxCell>
        <mxCell id="Jg-Q7u7jgiy3Y-VFD5Qe-35" value="209,404" style="whiteSpace=wrap;html=1;aspect=fixed;fillColor=#f8cecc;strokeColor=#b85450;" vertex="1" parent="1">
          <mxGeometry x="-80" y="400" width="80" height="80" as="geometry" />
        </mxCell>
        <mxCell id="Jg-Q7u7jgiy3Y-VFD5Qe-40" style="edgeStyle=orthogonalEdgeStyle;rounded=0;orthogonalLoop=1;jettySize=auto;html=1;" edge="1" parent="1" source="Jg-Q7u7jgiy3Y-VFD5Qe-37" target="Jg-Q7u7jgiy3Y-VFD5Qe-39">
          <mxGeometry relative="1" as="geometry" />
        </mxCell>
        <mxCell id="Jg-Q7u7jgiy3Y-VFD5Qe-37" value="210,405" style="whiteSpace=wrap;html=1;aspect=fixed;fillColor=#f8cecc;strokeColor=#b85450;" vertex="1" parent="1">
          <mxGeometry x="-80" y="520" width="80" height="80" as="geometry" />
        </mxCell>
        <mxCell id="Jg-Q7u7jgiy3Y-VFD5Qe-42" style="edgeStyle=orthogonalEdgeStyle;rounded=0;orthogonalLoop=1;jettySize=auto;html=1;entryX=0;entryY=0.5;entryDx=0;entryDy=0;" edge="1" parent="1" source="Jg-Q7u7jgiy3Y-VFD5Qe-39" target="Jg-Q7u7jgiy3Y-VFD5Qe-41">
          <mxGeometry relative="1" as="geometry" />
        </mxCell>
        <mxCell id="Jg-Q7u7jgiy3Y-VFD5Qe-39" value="203,405" style="whiteSpace=wrap;html=1;aspect=fixed;fillColor=#f8cecc;strokeColor=#b85450;" vertex="1" parent="1">
          <mxGeometry x="-80" y="640" width="80" height="80" as="geometry" />
        </mxCell>
        <mxCell id="Jg-Q7u7jgiy3Y-VFD5Qe-41" value="204,403" style="whiteSpace=wrap;html=1;aspect=fixed;fillColor=#d5e8d4;strokeColor=#82b366;" vertex="1" parent="1">
          <mxGeometry x="720" y="640" width="80" height="80" as="geometry" />
        </mxCell>
        <mxCell id="Jg-Q7u7jgiy3Y-VFD5Qe-49" value="" style="edgeStyle=orthogonalEdgeStyle;rounded=0;orthogonalLoop=1;jettySize=auto;html=1;" edge="1" parent="1" source="Jg-Q7u7jgiy3Y-VFD5Qe-46" target="Jg-Q7u7jgiy3Y-VFD5Qe-48">
          <mxGeometry relative="1" as="geometry" />
        </mxCell>
        <mxCell id="Jg-Q7u7jgiy3Y-VFD5Qe-57" style="edgeStyle=orthogonalEdgeStyle;rounded=0;orthogonalLoop=1;jettySize=auto;html=1;entryX=1;entryY=0.5;entryDx=0;entryDy=0;" edge="1" parent="1" source="Jg-Q7u7jgiy3Y-VFD5Qe-46" target="Jg-Q7u7jgiy3Y-VFD5Qe-50">
          <mxGeometry relative="1" as="geometry" />
        </mxCell>
        <mxCell id="Jg-Q7u7jgiy3Y-VFD5Qe-46" value="205,400" style="whiteSpace=wrap;html=1;aspect=fixed;fillColor=#fff2cc;strokeColor=#d6b656;" vertex="1" parent="1">
          <mxGeometry x="240" y="160" width="80" height="80" as="geometry" />
        </mxCell>
        <mxCell id="Jg-Q7u7jgiy3Y-VFD5Qe-61" value="" style="edgeStyle=orthogonalEdgeStyle;rounded=0;orthogonalLoop=1;jettySize=auto;html=1;" edge="1" parent="1" source="Jg-Q7u7jgiy3Y-VFD5Qe-48" target="Jg-Q7u7jgiy3Y-VFD5Qe-51">
          <mxGeometry relative="1" as="geometry" />
        </mxCell>
        <mxCell id="Jg-Q7u7jgiy3Y-VFD5Qe-48" value="206,400" style="whiteSpace=wrap;html=1;aspect=fixed;fillColor=#fff2cc;strokeColor=#d6b656;" vertex="1" parent="1">
          <mxGeometry x="240" y="280" width="80" height="80" as="geometry" />
        </mxCell>
        <mxCell id="Jg-Q7u7jgiy3Y-VFD5Qe-58" value="" style="edgeStyle=orthogonalEdgeStyle;rounded=0;orthogonalLoop=1;jettySize=auto;html=1;" edge="1" parent="1" source="Jg-Q7u7jgiy3Y-VFD5Qe-50" target="Jg-Q7u7jgiy3Y-VFD5Qe-51">
          <mxGeometry relative="1" as="geometry" />
        </mxCell>
        <mxCell id="Jg-Q7u7jgiy3Y-VFD5Qe-50" value="205,401" style="whiteSpace=wrap;html=1;aspect=fixed;fillColor=#fff2cc;strokeColor=#d6b656;" vertex="1" parent="1">
          <mxGeometry x="80" y="160" width="80" height="80" as="geometry" />
        </mxCell>
        <mxCell id="Jg-Q7u7jgiy3Y-VFD5Qe-56" style="edgeStyle=orthogonalEdgeStyle;rounded=0;orthogonalLoop=1;jettySize=auto;html=1;entryX=0;entryY=0.5;entryDx=0;entryDy=0;" edge="1" parent="1" source="Jg-Q7u7jgiy3Y-VFD5Qe-51" target="Jg-Q7u7jgiy3Y-VFD5Qe-13">
          <mxGeometry relative="1" as="geometry">
            <Array as="points">
              <mxPoint x="120" y="560" />
            </Array>
          </mxGeometry>
        </mxCell>
        <mxCell id="Jg-Q7u7jgiy3Y-VFD5Qe-51" value="206,401" style="whiteSpace=wrap;html=1;aspect=fixed;fillColor=#fff2cc;strokeColor=#d6b656;" vertex="1" parent="1">
          <mxGeometry x="80" y="280" width="80" height="80" as="geometry" />
        </mxCell>
        <mxCell id="Jg-Q7u7jgiy3Y-VFD5Qe-59" value="" style="edgeStyle=orthogonalEdgeStyle;rounded=0;orthogonalLoop=1;jettySize=auto;html=1;entryX=0;entryY=0.5;entryDx=0;entryDy=0;" edge="1" parent="1" source="Jg-Q7u7jgiy3Y-VFD5Qe-1" target="Jg-Q7u7jgiy3Y-VFD5Qe-4">
          <mxGeometry relative="1" as="geometry">
            <mxPoint x="640" y="80" as="sourcePoint" />
            <mxPoint x="680" y="40" as="targetPoint" />
            <Array as="points" />
          </mxGeometry>
        </mxCell>
      </root>
    </mxGraphModel>
  </diagram>
</mxfile>
